<svg width="122" height="97" viewBox="0 0 122 97" fill="none" xmlns="http://www.w3.org/2000/svg">
<g filter="url(#filter0_ddd_62_238)">
<path d="M55.3944 37.032C53.4556 37.1141 52.1278 37.3604 51.0056 37.8413C49.954 38.2928 49.3312 38.7092 48.5557 39.4775C47.5099 40.5155 46.8578 41.6826 46.4465 43.2484C46.0823 44.6325 46 46.2218 46 51.9867C46 57.6577 46.0764 59.2646 46.4171 60.6487C47.2632 64.0912 49.7895 66.2845 53.5084 66.7947C54.5718 66.9355 56.8044 67 61.0698 67C65.0355 67 67.3209 66.9414 68.3491 66.8182C70.4524 66.5719 72.0974 65.8447 73.3958 64.6014C74.8588 63.1939 75.6343 61.5107 75.9163 59.1121C76.0279 58.1738 76.0279 45.6588 75.9163 44.7732C75.6871 42.9787 75.1525 41.5008 74.3065 40.3689C73.8894 39.8059 72.9963 38.9555 72.4382 38.5743C71.175 37.724 69.6534 37.2548 67.6499 37.0847C66.704 37.0085 56.9983 36.9675 55.3944 37.032ZM68.1023 39.8646C69.7767 40.1109 70.7168 40.5273 71.6215 41.4245C72.2091 42.011 72.5322 42.5271 72.8201 43.3247C73.3018 44.6735 73.3488 45.389 73.3488 52.016C73.3488 55.8338 73.3253 57.6694 73.2725 58.2852C73.1021 60.3202 72.6967 61.4169 71.7449 62.4315C70.752 63.4871 69.5124 64.0091 67.5912 64.185C66.5513 64.2847 57.9559 64.3316 55.976 64.2495C55.083 64.2143 54.1488 64.1557 53.8962 64.1205C52.7858 63.968 51.7106 63.5751 51.0409 63.0883C50.6237 62.7775 49.954 62.0503 49.7072 61.6398C49.2137 60.8187 48.92 59.6634 48.8201 58.1973C48.6438 55.5347 48.7026 46.3977 48.9023 44.8846C49.1138 43.3188 49.6015 42.2632 50.5239 41.3718C51.5344 40.3924 52.8622 39.9173 54.9185 39.7883C55.365 39.7649 58.3672 39.7473 61.5985 39.759C66.61 39.7707 67.5677 39.7825 68.1023 39.8646Z" fill="white"/>
<path d="M68.2786 42.3688C67.6147 42.7031 67.2975 43.2192 67.2975 43.9816C67.2975 44.5329 67.4267 44.8613 67.8027 45.2366C68.1787 45.6061 68.5077 45.741 69.06 45.741C69.4536 45.741 69.5829 45.7175 69.8649 45.5768C70.4583 45.2835 70.7932 44.7733 70.8402 44.093C70.8813 43.489 70.7462 43.1371 70.329 42.7148C69.9413 42.3278 69.6005 42.1929 69.0306 42.1929C68.7134 42.1929 68.5724 42.2281 68.2786 42.3688Z" fill="white"/>
<path d="M59.6656 44.3979C58.1204 44.6794 56.7515 45.4007 55.6 46.5561C54.0725 48.075 53.3381 49.852 53.3381 51.9867C53.3381 53.2769 53.579 54.3384 54.1136 55.4057C55.7586 58.6664 59.3777 60.3378 62.8969 59.464C64.2835 59.118 65.3528 58.5198 66.3927 57.517C67.3268 56.6138 67.9555 55.6286 68.3491 54.4498C68.6311 53.5994 68.7368 52.9426 68.7368 51.9867C68.7368 51.0366 68.6311 50.3739 68.355 49.5411C67.979 48.4151 67.4326 47.5237 66.5807 46.644C65.4174 45.4476 63.9662 44.6735 62.3682 44.392C61.716 44.2806 60.3001 44.2806 59.6656 44.3979ZM61.9922 47.0839C64.683 47.5999 66.469 50.239 65.952 52.9426C65.6348 54.5788 64.4304 56.0332 62.8911 56.6255C62.1391 56.9188 61.7043 56.9892 60.8348 56.954C60.2179 56.9305 59.977 56.8953 59.5716 56.7663C57.7914 56.2033 56.493 54.7665 56.1288 52.9602C55.9878 52.2623 56.0406 51.1773 56.2521 50.5205C56.8044 48.7729 58.2791 47.4416 60.0357 47.0897C60.5586 46.9842 61.4634 46.9842 61.9922 47.0839Z" fill="white"/>
</g>
<defs>
<filter id="filter0_ddd_62_238" x="0" y="0" width="122" height="129" filterUnits="userSpaceOnUse" color-interpolation-filters="sRGB">
<feFlood flood-opacity="0" result="BackgroundImageFix"/>
<feColorMatrix in="SourceAlpha" type="matrix" values="0 0 0 0 0 0 0 0 0 0 0 0 0 0 0 0 0 0 127 0" result="hardAlpha"/>
<feOffset dy="9"/>
<feGaussianBlur stdDeviation="23"/>
<feColorMatrix type="matrix" values="0 0 0 0 0 0 0 0 0 0 0 0 0 0 0 0 0 0 0.12 0"/>
<feBlend mode="normal" in2="BackgroundImageFix" result="effect1_dropShadow_62_238"/>
<feColorMatrix in="SourceAlpha" type="matrix" values="0 0 0 0 0 0 0 0 0 0 0 0 0 0 0 0 0 0 127 0" result="hardAlpha"/>
<feOffset dy="24"/>
<feGaussianBlur stdDeviation="19"/>
<feColorMatrix type="matrix" values="0 0 0 0 0 0 0 0 0 0 0 0 0 0 0 0 0 0 0.14 0"/>
<feBlend mode="normal" in2="effect1_dropShadow_62_238" result="effect2_dropShadow_62_238"/>
<feColorMatrix in="SourceAlpha" type="matrix" values="0 0 0 0 0 0 0 0 0 0 0 0 0 0 0 0 0 0 127 0" result="hardAlpha"/>
<feOffset dy="4"/>
<feGaussianBlur stdDeviation="2"/>
<feComposite in2="hardAlpha" operator="out"/>
<feColorMatrix type="matrix" values="0 0 0 0 0 0 0 0 0 0 0 0 0 0 0 0 0 0 0.25 0"/>
<feBlend mode="normal" in2="effect2_dropShadow_62_238" result="effect3_dropShadow_62_238"/>
<feBlend mode="normal" in="SourceGraphic" in2="effect3_dropShadow_62_238" result="shape"/>
</filter>
</defs>
</svg>
