<svg width="60" height="60" viewBox="0 0 60 60" fill="none" xmlns="http://www.w3.org/2000/svg">
<path d="M46.8 8.74666C43.76 9.81333 42.16 10.72 40.4533 12.2667C38.7733 13.8133 37.52 15.7867 37.0667 17.6533C36.8533 18.48 36.5867 18.9333 36.32 18.9333C35.1733 18.9333 32.8 15.0667 32.8 13.2C32.8 12.2933 33.0667 12.3733 34.2667 13.6C34.8267 14.1867 35.36 14.6133 35.4133 14.56C35.76 14.1867 32.4 10.4 31.7333 10.4C31.0667 10.4 31.1467 11.2267 32.16 15.0667C32.8533 17.6533 34.96 20 36.5867 20C37.3333 20 37.8667 19.5467 37.8667 18.88C37.8667 18.64 38.1067 17.76 38.4267 16.9333C39.28 14.6667 41.6 12.32 44.3467 10.9867C46.7467 9.78666 48.6933 9.14666 48.9867 9.44C49.3333 9.76 47.5467 12.9333 46.1867 14.4267C44.88 15.84 42.48 17.76 40.72 18.7467L40.573 18.8339C40.4483 18.908 40.5254 19.0996 40.6667 19.0667V19.0667C42.5867 18.6667 44.88 17.3067 46.5333 15.6267C49.3867 12.72 51.12 8.26666 49.4667 8.07999C49.1733 8.05333 47.9733 8.34666 46.8 8.74666Z" fill="#0B820B"/>
<g filter="url(#filter0_ddd_430_30)">
<path d="M17.5733 13.4133C14.8533 14.5599 12.96 16.3466 11.7867 18.9066C10.8533 20.9066 10.6667 24.3466 11.3333 26.4266C12.8533 31.0133 16.5333 33.5999 21.52 33.5999V33.5999C22.3199 33.5999 22.7677 32.6778 22.273 32.0492L22.2133 31.9733C21.52 31.0666 20.8267 30.2933 20.6667 30.2666C17.7333 29.4933 15.5467 27.6799 14.96 25.5199C14.4 23.5466 14.6667 21.0933 15.6267 19.5733C18.24 15.2799 24.16 15.2799 26.8 19.5733C28.0533 21.6266 28.08 25.2799 26.8533 26.8799C26.64 27.1466 26.3733 26.9866 25.6267 26.1333L25.2945 25.755C24.8973 25.3026 24.3174 25.0532 23.7157 25.0761L22.56 25.1199V25.1199C21.6796 25.1534 21.2063 26.1689 21.7469 26.8646L23.7067 29.3866C26.9333 33.5733 26.96 33.5999 28.0267 33.5999V33.5999C28.601 33.5999 29.0667 34.0656 29.0667 34.6399V38.6666V41.7333C29.0667 42.8378 29.9621 43.7333 31.0667 43.7333V43.7333V43.7333C32.1712 43.7333 33.0667 42.8378 33.0667 41.7333V40.1333V38.5333C33.0667 37.4287 33.9621 36.5333 35.0667 36.5333H35.4133C38.24 36.5333 39.3866 36.2399 40.8533 35.1199C44.16 32.5866 44.3466 27.3333 41.2 24.5866C39.7066 23.2533 39.12 23.1199 35.2 22.9599L33.1763 22.8693C32.2643 22.8285 31.4957 22.1753 31.3083 21.2818L31.28 21.1466C31.0933 20.2399 30.6933 18.9866 30.3733 18.3733C29.52 16.6666 27.52 14.6933 25.7333 13.7866C24.3467 13.0666 23.8133 12.9599 21.6 12.8799C19.4133 12.7999 18.8533 12.8799 17.5733 13.4133ZM37.84 27.0666C38.9067 27.5999 39.6 29.3599 39.2 30.5333C39.04 30.9866 38.6133 31.6799 38.24 32.0266C37.6533 32.5866 37.2533 32.6666 35.3067 32.7733L35.138 32.7793C34.0062 32.8197 33.0667 31.9131 33.0667 30.7806V29.7599V28.6666C33.0667 27.562 33.9621 26.6666 35.0667 26.6666V26.6666C36.32 26.6666 37.3867 26.8266 37.84 27.0666Z" fill="white"/>
</g>
<path d="M17.3867 45.8667C17.0933 46.3467 16.4533 47.6267 15.9733 48.6933C15.4933 49.7867 14.9867 50.6667 14.88 50.6667C14.7733 50.6667 14.08 49.4667 13.3333 48C11.4667 44.2667 11.1733 44.3733 11.2533 48.72C11.3067 51.12 11.44 52.1333 11.68 52.2133C11.92 52.2933 12 51.7333 12 50.0267C12 48.7733 12.1067 47.7333 12.2133 47.7333C12.32 47.7333 12.9067 48.6933 13.4667 49.8667C14.0267 51.04 14.64 52 14.8 52C14.96 52 15.5733 51.04 16.1333 49.8667C16.6933 48.6933 17.28 47.7333 17.3867 47.7333C17.4933 47.7333 17.6 48.7733 17.6 50.0267C17.6 51.7333 17.68 52.2933 17.9467 52.2133C18.3467 52.0533 18.56 45.6533 18.16 45.2533C18 45.0933 17.7067 45.3067 17.3867 45.8667Z" fill="#1EB41E"/>
<path d="M30.56 45.2529C30.48 45.3329 30.4 45.9996 30.4 46.6929V46.9924C30.4 47.4598 29.9255 47.7775 29.4933 47.5996V47.5996C28.2133 47.0662 27.12 47.4662 26.5333 48.6929C25.7067 50.4529 26.8533 52.2662 28.8 52.2662C30.6667 52.2396 31.2 51.2796 31.2 47.8929C31.2 45.5729 31.0133 44.7996 30.56 45.2529ZM29.8667 48.5329C30.96 49.6262 30.2133 51.5462 28.6667 51.5462C27.68 51.5462 27.2 50.9862 27.2 49.8396C27.2 48.2129 28.7733 47.4396 29.8667 48.5329Z" fill="#1EB41E"/>
<path d="M24.16 47.3866C24.08 47.4666 24 48.2133 24 48.9866C24 50.9066 23.68 51.4666 22.5866 51.4666C21.3333 51.4666 21.0666 51.0666 21.0666 49.12C21.0666 47.6533 21.0133 47.44 20.6133 47.52C20 47.6266 19.8133 49.84 20.2933 50.9866C20.72 52.0266 21.2533 52.24 23.1733 52.1866V52.1866C24.076 52.1718 24.8 51.4359 24.8 50.5331V49.8133C24.8 47.68 24.6133 46.9333 24.16 47.3866Z" fill="#1EB41E"/>
<path d="M34.2133 47.6C33.2 48.0267 32.8 48.72 32.8 50C32.8 51.76 34.6933 52.8533 36.2667 52C36.6133 51.8133 36.8267 51.8133 36.9333 52C37.36 52.6666 37.6 52.1333 37.6 50.56C37.6 49.1467 37.4933 48.72 37.0133 48.1867C36.24 47.3333 35.28 47.1467 34.2133 47.6ZM36.1867 48.4C36.9333 48.9067 37.0667 49.6267 36.64 50.64C36.32 51.4133 35.92 51.6 34.9333 51.4666C33.6533 51.3066 33.1733 49.4933 34.1333 48.5333C34.7733 47.8933 35.4133 47.8667 36.1867 48.4Z" fill="#1EB41E"/>
<path d="M40.4 47.4126C39.6 47.5726 39.2 47.9993 39.2 48.6659C39.2 49.3859 39.5733 49.7326 40.6667 49.9726C42.1333 50.3459 42.56 51.0393 41.5467 51.4393C41.1467 51.5993 40.6133 51.5459 40.08 51.3059C39.4667 51.0659 39.1467 51.0393 39.04 51.2526C38.4533 52.1859 41.68 52.6659 42.48 51.7859C43.36 50.7993 42.8 49.8393 41.0667 49.4126C40.4 49.2259 40.1333 49.0126 40.1333 48.6393C40.1333 48.2393 40.32 48.1326 40.9333 48.1593C41.3867 48.1593 41.9467 48.2659 42.2133 48.3726C42.5333 48.5326 42.6667 48.4793 42.6667 48.1593C42.6667 47.9193 42.64 47.7326 42.5867 47.7326C42.56 47.7326 42.16 47.6259 41.7333 47.5193C41.28 47.386 40.6933 47.3593 40.4 47.4126Z" fill="#1EB41E"/>
<defs>
<filter id="filter0_ddd_430_30" x="2.9361" y="5.85345" width="48.5147" height="46.8798" filterUnits="userSpaceOnUse" color-interpolation-filters="sRGB">
<feFlood flood-opacity="0" result="BackgroundImageFix"/>
<feColorMatrix in="SourceAlpha" type="matrix" values="0 0 0 0 0 0 0 0 0 0 0 0 0 0 0 0 0 0 127 0" result="hardAlpha"/>
<feOffset dy="1"/>
<feGaussianBlur stdDeviation="4"/>
<feColorMatrix type="matrix" values="0 0 0 0 0 0 0 0 0 0 0 0 0 0 0 0 0 0 0.2 0"/>
<feBlend mode="normal" in2="BackgroundImageFix" result="effect1_dropShadow_430_30"/>
<feColorMatrix in="SourceAlpha" type="matrix" values="0 0 0 0 0 0 0 0 0 0 0 0 0 0 0 0 0 0 127 0" result="hardAlpha"/>
<feOffset dy="3"/>
<feGaussianBlur stdDeviation="2"/>
<feColorMatrix type="matrix" values="0 0 0 0 0 0 0 0 0 0 0 0 0 0 0 0 0 0 0.12 0"/>
<feBlend mode="normal" in2="effect1_dropShadow_430_30" result="effect2_dropShadow_430_30"/>
<feColorMatrix in="SourceAlpha" type="matrix" values="0 0 0 0 0 0 0 0 0 0 0 0 0 0 0 0 0 0 127 0" result="hardAlpha"/>
<feOffset dy="3"/>
<feGaussianBlur stdDeviation="1.5"/>
<feColorMatrix type="matrix" values="0 0 0 0 0 0 0 0 0 0 0 0 0 0 0 0 0 0 0.14 0"/>
<feBlend mode="normal" in2="effect2_dropShadow_430_30" result="effect3_dropShadow_430_30"/>
<feBlend mode="normal" in="SourceGraphic" in2="effect3_dropShadow_430_30" result="shape"/>
</filter>
</defs>
</svg>
