<svg width="112" height="124" viewBox="0 0 112 124" fill="none" xmlns="http://www.w3.org/2000/svg">
<g filter="url(#filter0_ddd_412_36)">
<path d="M95.1 9.13775C87.7533 11.7155 83.8867 13.9066 79.7622 17.6444C75.7022 21.3822 72.6733 26.1511 71.5778 30.6622C71.0622 32.66 70.4178 33.7555 69.7733 33.7555C67.0022 33.7555 61.2666 24.4111 61.2666 19.9C61.2666 17.7089 61.9111 17.9022 64.8111 20.8666C66.1644 22.2844 67.4533 23.3155 67.5822 23.1866C68.42 22.2844 60.3 13.1333 58.6889 13.1333C57.0778 13.1333 57.2711 15.1311 59.72 24.4111C61.3955 30.6622 66.4866 36.3333 70.4178 36.3333C72.2222 36.3333 73.5111 35.2378 73.5111 33.6266C73.5111 33.0466 74.0911 30.92 74.8644 28.9222C76.9267 23.4444 82.5333 17.7733 89.1711 14.5511C94.9711 11.6511 99.6755 10.1044 100.384 10.8133C101.222 11.5866 96.9044 19.2555 93.6178 22.8644C90.46 26.28 84.66 30.92 80.4067 33.3044L80.0515 33.5153C79.75 33.6943 79.9363 34.1574 80.2778 34.0778V34.0778C84.9178 33.1111 90.46 29.8244 94.4555 25.7644C101.351 18.74 105.54 7.97775 101.544 7.52664C100.836 7.46219 97.9355 8.17108 95.1 9.13775Z" fill="#0B820B"/>
<g filter="url(#filter1_ddd_412_36)">
<path d="M24.4689 20.4155C17.8955 23.1866 13.32 27.5044 10.4844 33.6911C8.22888 38.5244 7.77777 46.8377 9.38888 51.8644C13.0622 62.9488 21.9555 69.2 34.0066 69.2H34.6568C36.3264 69.2 37.261 67.2752 36.2286 65.9632L35.6822 65.2688C34.0066 63.0777 32.3311 61.2088 31.9444 61.1444C24.8555 59.2755 19.5711 54.8933 18.1533 49.6733C16.8 44.9044 17.4444 38.9755 19.7644 35.3022C26.08 24.9266 40.3866 24.9266 46.7666 35.3022C49.7955 40.2644 49.86 49.0933 46.8955 52.96C46.38 53.6044 45.7355 53.2177 43.9311 51.1555L42.239 49.2284C41.8417 48.7759 41.2618 48.5266 40.6602 48.5494L36.52 48.7066L35.3239 48.752C33.6961 48.8139 32.8211 50.6915 33.8206 51.9778L39.2911 59.0177C47.0889 69.1355 47.1533 69.2 49.7311 69.2H50.2444C51.349 69.2 52.2444 70.0954 52.2444 71.2V81.4444V91.6888C52.2444 92.7934 53.1399 93.6888 54.2444 93.6888H57.0778H59.9111C61.0157 93.6888 61.9111 92.7934 61.9111 91.6888V84.9888V78.2888C61.9111 77.1843 62.8065 76.2888 63.9111 76.2888H67.5822C74.4133 76.2888 77.1844 75.58 80.7289 72.8733C88.72 66.7511 89.1711 54.0555 81.5666 47.4177C77.9577 44.1955 76.54 43.8733 67.0666 43.4866L59.9807 43.1693C59.0687 43.1285 58.3001 42.4753 58.1128 41.5818L57.5933 39.1044C57.1422 36.9133 56.1755 33.8844 55.4022 32.4022C53.34 28.2777 48.5066 23.5088 44.1889 21.3177C40.8378 19.5777 39.5489 19.32 34.2 19.1266C28.9155 18.9333 27.5622 19.1266 24.4689 20.4155ZM73.4466 53.4111C76.0244 54.7 77.7 58.9533 76.7333 61.7888C76.3466 62.8844 75.3155 64.56 74.4133 65.3977C72.9955 66.7511 72.0289 66.9444 67.3244 67.2022L63.9825 67.3215C62.8506 67.362 61.9111 66.4554 61.9111 65.3228V59.92V54.4444C61.9111 53.3398 62.8065 52.4444 63.9111 52.4444H66.7444C69.7733 52.4444 72.3511 52.8311 73.4466 53.4111Z" fill="#C02A27"/>
</g>
<path d="M24.0178 98.8445C23.3089 100.004 21.7622 103.098 20.6022 105.676C19.4422 108.318 18.2178 110.444 17.96 110.444C17.7022 110.444 16.0267 107.544 14.2222 104C9.71113 94.9778 9.00224 95.2356 9.19557 105.74C9.32446 111.54 9.64668 113.989 10.2267 114.182C10.8067 114.376 11 113.022 11 108.898C11 105.869 11.2578 103.356 11.5156 103.356C11.7733 103.356 13.1911 105.676 14.5445 108.511C15.8978 111.347 17.38 113.667 17.7667 113.667C18.1533 113.667 19.6356 111.347 20.9889 108.511C22.3422 105.676 23.76 103.356 24.0178 103.356C24.2756 103.356 24.5333 105.869 24.5333 108.898C24.5333 113.022 24.7267 114.376 25.3711 114.182C26.3378 113.796 26.8533 98.3289 25.8867 97.3622C25.5 96.9756 24.7911 97.4911 24.0178 98.8445Z" fill="#1EB41E"/>
<path d="M55.8533 97.3612C55.66 97.5545 55.4667 99.1656 55.4667 100.841V101.565C55.4667 102.694 54.32 103.462 53.2756 103.032V103.032C50.1822 101.743 47.54 102.71 46.1222 105.675C44.1244 109.928 46.8956 114.31 51.6 114.31C56.1111 114.246 57.4 111.926 57.4 103.741C57.4 98.1345 56.9489 96.2656 55.8533 97.3612ZM54.1778 105.288C56.82 107.93 55.0156 112.57 51.2778 112.57C48.8933 112.57 47.7333 111.217 47.7333 108.446C47.7333 104.515 51.5356 102.646 54.1778 105.288Z" fill="#1EB41E"/>
<path d="M40.3866 102.518C40.1933 102.711 39.9999 104.516 39.9999 106.384C39.9999 111.024 39.2266 112.378 36.5844 112.378C33.5555 112.378 32.911 111.411 32.911 106.707C32.911 103.162 32.7822 102.647 31.8155 102.84C30.3333 103.098 29.8822 108.447 31.0422 111.218C32.0733 113.731 33.3622 114.247 38.0022 114.118L39.9661 114.086C41.0577 114.068 41.9333 113.178 41.9333 112.086V108.382C41.9333 103.227 41.4822 101.422 40.3866 102.518Z" fill="#1EB41E"/>
<path d="M64.6822 103.033C62.2333 104.064 61.2666 105.74 61.2666 108.833C61.2666 113.087 65.8422 115.729 69.6444 113.667C70.4822 113.216 70.9977 113.216 71.2555 113.667C72.2866 115.278 72.8666 113.989 72.8666 110.187C72.8666 106.771 72.6089 105.74 71.4489 104.451C69.58 102.389 67.26 101.938 64.6822 103.033ZM69.4511 104.967C71.2555 106.191 71.5777 107.931 70.5466 110.38C69.7733 112.249 68.8066 112.7 66.4222 112.378C63.3288 111.991 62.1688 107.609 64.4888 105.289C66.0355 103.742 67.5822 103.678 69.4511 104.967Z" fill="#1EB41E"/>
<path d="M79.6333 102.581C77.7 102.967 76.7333 103.998 76.7333 105.609C76.7333 107.349 77.6355 108.187 80.2778 108.767C83.8222 109.669 84.8533 111.345 82.4044 112.312C81.4378 112.698 80.1489 112.569 78.86 111.989C77.3778 111.409 76.6044 111.345 76.3466 111.861C74.9289 114.116 82.7267 115.276 84.66 113.149C86.7867 110.765 85.4333 108.445 81.2444 107.414C79.6333 106.963 78.9889 106.447 78.9889 105.545C78.9889 104.578 79.44 104.321 80.9222 104.385C82.0178 104.385 83.3711 104.643 84.0155 104.901C84.7889 105.287 85.1111 105.158 85.1111 104.385C85.1111 103.805 85.0467 103.354 84.9178 103.354C84.8533 103.354 83.8867 103.096 82.8555 102.838C81.76 102.516 80.3422 102.452 79.6333 102.581Z" fill="#1EB41E"/>
</g>
<defs>
<filter id="filter0_ddd_412_36" x="0.428909" y="0.522583" width="110.67" height="122.859" filterUnits="userSpaceOnUse" color-interpolation-filters="sRGB">
<feFlood flood-opacity="0" result="BackgroundImageFix"/>
<feColorMatrix in="SourceAlpha" type="matrix" values="0 0 0 0 0 0 0 0 0 0 0 0 0 0 0 0 0 0 127 0" result="hardAlpha"/>
<feOffset dy="1"/>
<feGaussianBlur stdDeviation="4"/>
<feColorMatrix type="matrix" values="0 0 0 0 0 0 0 0 0 0 0 0 0 0 0 0 0 0 0.2 0"/>
<feBlend mode="normal" in2="BackgroundImageFix" result="effect1_dropShadow_412_36"/>
<feColorMatrix in="SourceAlpha" type="matrix" values="0 0 0 0 0 0 0 0 0 0 0 0 0 0 0 0 0 0 127 0" result="hardAlpha"/>
<feOffset dy="3"/>
<feGaussianBlur stdDeviation="2"/>
<feColorMatrix type="matrix" values="0 0 0 0 0 0 0 0 0 0 0 0 0 0 0 0 0 0 0.12 0"/>
<feBlend mode="normal" in2="effect1_dropShadow_412_36" result="effect2_dropShadow_412_36"/>
<feColorMatrix in="SourceAlpha" type="matrix" values="0 0 0 0 0 0 0 0 0 0 0 0 0 0 0 0 0 0 127 0" result="hardAlpha"/>
<feOffset dy="3"/>
<feGaussianBlur stdDeviation="1.5"/>
<feColorMatrix type="matrix" values="0 0 0 0 0 0 0 0 0 0 0 0 0 0 0 0 0 0 0.14 0"/>
<feBlend mode="normal" in2="effect2_dropShadow_412_36" result="effect3_dropShadow_412_36"/>
<feBlend mode="normal" in="SourceGraphic" in2="effect3_dropShadow_412_36" result="shape"/>
</filter>
<filter id="filter1_ddd_412_36" x="0.428909" y="12.0626" width="94.5771" height="90.6263" filterUnits="userSpaceOnUse" color-interpolation-filters="sRGB">
<feFlood flood-opacity="0" result="BackgroundImageFix"/>
<feColorMatrix in="SourceAlpha" type="matrix" values="0 0 0 0 0 0 0 0 0 0 0 0 0 0 0 0 0 0 127 0" result="hardAlpha"/>
<feOffset dy="1"/>
<feGaussianBlur stdDeviation="4"/>
<feColorMatrix type="matrix" values="0 0 0 0 0 0 0 0 0 0 0 0 0 0 0 0 0 0 0.2 0"/>
<feBlend mode="normal" in2="BackgroundImageFix" result="effect1_dropShadow_412_36"/>
<feColorMatrix in="SourceAlpha" type="matrix" values="0 0 0 0 0 0 0 0 0 0 0 0 0 0 0 0 0 0 127 0" result="hardAlpha"/>
<feOffset dy="3"/>
<feGaussianBlur stdDeviation="2"/>
<feColorMatrix type="matrix" values="0 0 0 0 0 0 0 0 0 0 0 0 0 0 0 0 0 0 0.12 0"/>
<feBlend mode="normal" in2="effect1_dropShadow_412_36" result="effect2_dropShadow_412_36"/>
<feColorMatrix in="SourceAlpha" type="matrix" values="0 0 0 0 0 0 0 0 0 0 0 0 0 0 0 0 0 0 127 0" result="hardAlpha"/>
<feOffset dy="3"/>
<feGaussianBlur stdDeviation="1.5"/>
<feColorMatrix type="matrix" values="0 0 0 0 0 0 0 0 0 0 0 0 0 0 0 0 0 0 0.14 0"/>
<feBlend mode="normal" in2="effect2_dropShadow_412_36" result="effect3_dropShadow_412_36"/>
<feBlend mode="normal" in="SourceGraphic" in2="effect3_dropShadow_412_36" result="shape"/>
</filter>
</defs>
</svg>
